<svg version="1.1" id="Layer_1" xmlns="http://www.w3.org/2000/svg" xmlns:xlink="http://www.w3.org/1999/xlink" x="0px" y="0px"
	 width="100%" viewBox="0 0 512 512" enable-background="new 0 0 512 512" xml:space="preserve">
<path fill="#FEFEFF" opacity="1.000000" stroke="none" 
	d="
M513.000000,234.000000 
	C513.000000,326.962280 513.000000,419.924561 513.000000,512.943420 
	C342.440277,512.943420 171.880508,512.943420 1.000000,512.943420 
	C1.000000,419.978241 1.000000,326.956085 1.315190,233.642548 
	C1.943907,234.296661 2.201350,235.265274 2.579479,236.184219 
	C7.211238,247.440308 15.425057,254.651169 27.604206,255.627655 
	C39.268368,256.562866 48.631325,251.942734 54.573380,241.174393 
	C55.442600,239.599167 58.528851,238.458710 60.595093,238.449692 
	C97.591751,238.288132 134.589294,238.328949 171.586655,238.343918 
	C173.136826,238.344559 174.686935,238.516098 176.808670,238.641922 
	C172.367645,249.064133 168.359985,258.735199 164.044830,268.267029 
	C163.491592,269.489105 161.349487,270.690002 159.925980,270.710846 
	C147.096313,270.898926 134.261185,270.914764 121.432343,270.700684 
	C119.864792,270.674561 117.552925,269.376038 116.888878,268.026215 
	C108.167603,250.298264 81.821609,247.565948 68.244125,266.446381 
	C59.487560,278.622986 62.652805,295.669525 75.503120,304.831726 
	C88.331779,313.978424 106.774933,311.793793 114.457893,299.286469 
	C117.715080,293.983948 121.175598,292.687408 126.744904,292.976379 
	C134.224243,293.364502 141.738892,293.058136 149.238235,293.087646 
	C150.463959,293.092468 151.688919,293.291534 153.532242,293.455902 
	C149.424957,303.028259 145.428085,311.973419 141.776276,321.057343 
	C140.520767,324.180420 138.871124,325.195770 135.496277,325.170807 
	C113.165749,325.005646 90.832123,324.957703 68.502708,325.185730 
	C63.618225,325.235596 60.521736,324.281799 57.578568,319.747284 
	C50.663185,309.092865 37.497707,305.126312 25.866444,309.082123 
	C13.463058,313.300537 5.583254,324.559204 6.137997,337.270142 
	C6.701916,350.191315 15.261199,360.714142 27.865536,363.982117 
	C39.575073,367.018158 52.577694,361.819794 58.847775,351.071014 
	C60.670307,347.946655 62.691715,347.179504 66.000130,347.199890 
	C85.831291,347.322113 105.663589,347.260468 125.495506,347.260468 
	C126.913269,347.260468 128.331039,347.260498 130.563141,347.260498 
	C123.409714,364.191193 116.581329,380.352570 109.458626,397.210541 
	C111.794052,397.210541 113.404175,397.210541 115.014290,397.210541 
	C132.846344,397.210571 150.679672,397.099365 168.509445,397.301331 
	C172.226547,397.343414 173.901932,396.278168 175.345200,392.719360 
	C201.684570,327.772308 228.201508,262.897247 254.688904,198.010269 
	C255.317093,196.471344 256.039520,194.970886 257.077087,192.648849 
	C258.063965,195.007126 258.585419,196.226166 259.086151,197.453659 
	C285.684204,262.654785 312.307159,327.845795 338.794739,393.091766 
	C340.057190,396.201508 341.437866,397.398163 344.872131,397.302338 
	C354.364075,397.037384 363.868195,397.210663 373.367523,397.210663 
	C383.497253,397.210663 393.626984,397.210663 404.492432,397.210663 
	C397.374634,380.312561 390.520050,364.039307 383.452545,347.260498 
	C405.090149,347.260498 425.750580,347.376770 446.407654,347.167786 
	C450.835419,347.123016 453.479797,348.220367 455.942841,352.269318 
	C462.809601,363.557373 477.820099,367.765289 490.336456,362.611542 
	C502.320435,357.676971 509.592529,344.473602 507.311523,331.791260 
	C505.155853,319.805847 496.132812,310.231018 485.076599,308.196594 
	C472.711365,305.921295 461.362732,310.874695 454.773804,321.829590 
	C453.249817,324.363434 451.635315,325.149841 448.831879,325.138641 
	C425.333923,325.045013 401.835175,325.030945 378.337463,325.151154 
	C375.259125,325.166870 373.559509,324.387573 372.359009,321.367767 
	C369.098053,313.164917 365.447815,305.117188 361.996582,296.989044 
	C361.518616,295.863312 361.293121,294.630432 360.842346,293.072571 
	C371.248596,293.072571 381.075531,293.200531 390.895813,293.001740 
	C394.244019,292.933960 396.198608,293.780701 397.914429,296.941406 
	C403.464233,307.164581 415.420471,312.361237 426.850861,310.041443 
	C439.645508,307.444733 450.178833,295.558838 450.662231,283.172424 
	C451.152924,270.599579 442.047699,258.462097 429.139709,254.482483 
	C416.897705,250.708176 404.440033,256.026306 397.127258,267.820801 
	C396.225250,269.275604 393.908081,270.659241 392.220093,270.691711 
	C379.725586,270.932068 367.223083,270.724121 354.726227,270.892487 
	C351.717712,270.933014 350.266418,269.876587 349.186188,267.156311 
	C346.240814,259.739075 343.007568,252.436523 339.927338,245.072235 
	C339.076019,243.036911 338.360992,240.944565 337.377899,238.332169 
	C340.092438,238.332169 341.910828,238.332169 343.729218,238.332169 
	C378.893372,238.332169 414.058289,238.446884 449.220917,238.217346 
	C454.966949,238.179840 459.702637,238.466492 461.811310,244.804245 
	C462.153778,245.833572 463.185242,246.666534 463.987274,247.505157 
	C477.509583,261.645081 501.469513,256.983551 510.342377,238.522568 
	C511.097229,236.952087 512.108093,235.504623 513.000000,234.000000 
z"/>
<path fill="#FEFEFF" opacity="1.000000" stroke="none" 
	d="
M1.000000,221.000000 
	C1.000000,147.700226 1.000000,74.400452 1.000000,1.050341 
	C171.554977,1.050341 342.109985,1.050341 513.000000,1.050341 
	C513.000000,74.354424 513.000000,147.709366 512.650269,221.402344 
	C508.909027,209.319214 500.914734,201.272690 488.312042,199.173828 
	C475.546204,197.047775 465.563812,202.027771 459.132843,213.679031 
	C458.433960,214.945190 456.031311,215.885712 454.396851,215.919907 
	C444.571716,216.125504 434.740112,216.022232 424.910675,216.022247 
	C393.922974,216.022278 362.935181,216.042953 331.947693,215.964401 
	C330.305908,215.960236 327.650085,215.590149 327.184662,214.590439 
	C323.065948,205.743668 319.335968,196.715912 315.227600,187.126480 
	C317.663269,187.016937 319.267029,186.885696 320.871033,186.882370 
	C330.367218,186.862656 339.865631,186.988556 349.358521,186.809906 
	C352.689209,186.747223 354.660370,187.573273 356.417755,190.760941 
	C362.891754,202.503799 375.942444,207.007980 389.151794,202.546417 
	C401.604309,198.340500 410.401550,185.050095 408.876862,172.746857 
	C407.405457,160.873337 397.276825,150.001526 385.487732,147.641556 
	C373.527191,145.247269 362.159332,150.386963 355.956879,161.417725 
	C354.485229,164.034958 352.892151,164.776779 350.089935,164.750809 
	C336.763062,164.627258 323.432770,164.584396 310.107422,164.773438 
	C306.769928,164.820801 305.158630,163.843475 303.863586,160.652374 
	C298.360535,147.092178 292.444092,133.700287 286.849365,120.176300 
	C285.797852,117.634460 284.501129,116.699898 281.712097,116.722458 
	C265.219696,116.855904 248.725082,116.860199 232.232834,116.719223 
	C229.410950,116.695107 228.171509,117.698143 227.130692,120.212021 
	C221.531799,133.734756 215.618088,147.128204 210.115082,160.688843 
	C208.813126,163.897202 207.156372,164.817520 203.843353,164.771744 
	C190.517853,164.587555 177.187653,164.625992 163.860794,164.751770 
	C161.056244,164.778229 159.629044,163.782684 157.881958,161.506943 
	C154.708832,157.373657 151.230164,152.875275 146.827606,150.397247 
	C133.273483,142.768219 115.549324,148.949127 107.941139,163.186707 
	C100.840004,176.475418 106.232758,192.498627 120.564377,200.693420 
	C133.859680,208.295654 149.960648,203.661407 158.186371,190.142654 
	C159.146057,188.565414 161.645050,187.068283 163.472198,187.016815 
	C173.959702,186.721405 184.459869,186.859253 194.955582,186.896027 
	C196.002136,186.899689 197.047607,187.212112 198.659012,187.472672 
	C195.027924,195.905228 191.432709,203.757355 188.291656,211.787140 
	C186.986176,215.124573 185.226761,216.118240 181.697342,216.106583 
	C141.547012,215.973801 101.396019,215.984528 61.245529,216.086273 
	C57.619106,216.095459 55.415997,215.367844 53.386528,211.848206 
	C46.492718,199.892380 32.426247,195.620895 19.579519,200.824295 
	C10.162396,204.638565 4.805998,212.077530 1.000000,221.000000 
z"/>
<path fill="#1B03AE" opacity="1.000000" stroke="none" 
	d="
M1.000000,221.460632 
	C4.805998,212.077530 10.162396,204.638565 19.579519,200.824295 
	C32.426247,195.620895 46.492718,199.892380 53.386528,211.848206 
	C55.415997,215.367844 57.619106,216.095459 61.245529,216.086273 
	C101.396019,215.984528 141.547012,215.973801 181.697342,216.106583 
	C185.226761,216.118240 186.986176,215.124573 188.291656,211.787140 
	C191.432709,203.757355 195.027924,195.905228 198.659012,187.472672 
	C197.047607,187.212112 196.002136,186.899689 194.955582,186.896027 
	C184.459869,186.859253 173.959702,186.721405 163.472198,187.016815 
	C161.645050,187.068283 159.146057,188.565414 158.186371,190.142654 
	C149.960648,203.661407 133.859680,208.295654 120.564377,200.693420 
	C106.232758,192.498627 100.840004,176.475418 107.941139,163.186707 
	C115.549324,148.949127 133.273483,142.768219 146.827606,150.397247 
	C151.230164,152.875275 154.708832,157.373657 157.881958,161.506943 
	C159.629044,163.782684 161.056244,164.778229 163.860794,164.751770 
	C177.187653,164.625992 190.517853,164.587555 203.843353,164.771744 
	C207.156372,164.817520 208.813126,163.897202 210.115082,160.688843 
	C215.618088,147.128204 221.531799,133.734756 227.130692,120.212021 
	C228.171509,117.698143 229.410950,116.695107 232.232834,116.719223 
	C248.725082,116.860199 265.219696,116.855904 281.712097,116.722458 
	C284.501129,116.699898 285.797852,117.634460 286.849365,120.176300 
	C292.444092,133.700287 298.360535,147.092178 303.863586,160.652374 
	C305.158630,163.843475 306.769928,164.820801 310.107422,164.773438 
	C323.432770,164.584396 336.763062,164.627258 350.089935,164.750809 
	C352.892151,164.776779 354.485229,164.034958 355.956879,161.417725 
	C362.159332,150.386963 373.527191,145.247269 385.487732,147.641556 
	C397.276825,150.001526 407.405457,160.873337 408.876862,172.746857 
	C410.401550,185.050095 401.604309,198.340500 389.151794,202.546417 
	C375.942444,207.007980 362.891754,202.503799 356.417755,190.760941 
	C354.660370,187.573273 352.689209,186.747223 349.358521,186.809906 
	C339.865631,186.988556 330.367218,186.862656 320.871033,186.882370 
	C319.267029,186.885696 317.663269,187.016937 315.227600,187.126480 
	C319.335968,196.715912 323.065948,205.743668 327.184662,214.590439 
	C327.650085,215.590149 330.305908,215.960236 331.947693,215.964401 
	C362.935181,216.042953 393.922974,216.022278 424.910675,216.022247 
	C434.740112,216.022232 444.571716,216.125504 454.396851,215.919907 
	C456.031311,215.885712 458.433960,214.945190 459.132843,213.679031 
	C465.563812,202.027771 475.546204,197.047775 488.312042,199.173828 
	C500.914734,201.272690 508.909027,209.319214 512.650269,221.870209 
	C513.000000,225.692902 513.000000,229.385818 513.000000,233.539368 
	C512.108093,235.504623 511.097229,236.952087 510.342377,238.522568 
	C501.469513,256.983551 477.509583,261.645081 463.987274,247.505157 
	C463.185242,246.666534 462.153778,245.833572 461.811310,244.804245 
	C459.702637,238.466492 454.966949,238.179840 449.220917,238.217346 
	C414.058289,238.446884 378.893372,238.332169 343.729218,238.332169 
	C341.910828,238.332169 340.092438,238.332169 337.377899,238.332169 
	C338.360992,240.944565 339.076019,243.036911 339.927338,245.072235 
	C343.007568,252.436523 346.240814,259.739075 349.186188,267.156311 
	C350.266418,269.876587 351.717712,270.933014 354.726227,270.892487 
	C367.223083,270.724121 379.725586,270.932068 392.220093,270.691711 
	C393.908081,270.659241 396.225250,269.275604 397.127258,267.820801 
	C404.440033,256.026306 416.897705,250.708176 429.139709,254.482483 
	C442.047699,258.462097 451.152924,270.599579 450.662231,283.172424 
	C450.178833,295.558838 439.645508,307.444733 426.850861,310.041443 
	C415.420471,312.361237 403.464233,307.164581 397.914429,296.941406 
	C396.198608,293.780701 394.244019,292.933960 390.895813,293.001740 
	C381.075531,293.200531 371.248596,293.072571 360.842346,293.072571 
	C361.293121,294.630432 361.518616,295.863312 361.996582,296.989044 
	C365.447815,305.117188 369.098053,313.164917 372.359009,321.367767 
	C373.559509,324.387573 375.259125,325.166870 378.337463,325.151154 
	C401.835175,325.030945 425.333923,325.045013 448.831879,325.138641 
	C451.635315,325.149841 453.249817,324.363434 454.773804,321.829590 
	C461.362732,310.874695 472.711365,305.921295 485.076599,308.196594 
	C496.132812,310.231018 505.155853,319.805847 507.311523,331.791260 
	C509.592529,344.473602 502.320435,357.676971 490.336456,362.611542 
	C477.820099,367.765289 462.809601,363.557373 455.942841,352.269318 
	C453.479797,348.220367 450.835419,347.123016 446.407654,347.167786 
	C425.750580,347.376770 405.090149,347.260498 383.452545,347.260498 
	C390.520050,364.039307 397.374634,380.312561 404.492432,397.210663 
	C393.626984,397.210663 383.497253,397.210663 373.367523,397.210663 
	C363.868195,397.210663 354.364075,397.037384 344.872131,397.302338 
	C341.437866,397.398163 340.057190,396.201508 338.794739,393.091766 
	C312.307159,327.845795 285.684204,262.654785 259.086151,197.453659 
	C258.585419,196.226166 258.063965,195.007126 257.077087,192.648849 
	C256.039520,194.970886 255.317093,196.471344 254.688904,198.010269 
	C228.201508,262.897247 201.684570,327.772308 175.345200,392.719360 
	C173.901932,396.278168 172.226547,397.343414 168.509445,397.301331 
	C150.679672,397.099365 132.846344,397.210571 115.014290,397.210541 
	C113.404175,397.210541 111.794052,397.210541 109.458626,397.210541 
	C116.581329,380.352570 123.409714,364.191193 130.563141,347.260498 
	C128.331039,347.260498 126.913269,347.260468 125.495506,347.260468 
	C105.663589,347.260468 85.831291,347.322113 66.000130,347.199890 
	C62.691715,347.179504 60.670307,347.946655 58.847775,351.071014 
	C52.577694,361.819794 39.575073,367.018158 27.865536,363.982117 
	C15.261199,360.714142 6.701916,350.191315 6.137997,337.270142 
	C5.583254,324.559204 13.463058,313.300537 25.866444,309.082123 
	C37.497707,305.126312 50.663185,309.092865 57.578568,319.747284 
	C60.521736,324.281799 63.618225,325.235596 68.502708,325.185730 
	C90.832123,324.957703 113.165749,325.005646 135.496277,325.170807 
	C138.871124,325.195770 140.520767,324.180420 141.776276,321.057343 
	C145.428085,311.973419 149.424957,303.028259 153.532242,293.455902 
	C151.688919,293.291534 150.463959,293.092468 149.238235,293.087646 
	C141.738892,293.058136 134.224243,293.364502 126.744904,292.976379 
	C121.175598,292.687408 117.715080,293.983948 114.457893,299.286469 
	C106.774933,311.793793 88.331779,313.978424 75.503120,304.831726 
	C62.652805,295.669525 59.487560,278.622986 68.244125,266.446381 
	C81.821609,247.565948 108.167603,250.298264 116.888878,268.026215 
	C117.552925,269.376038 119.864792,270.674561 121.432343,270.700684 
	C134.261185,270.914764 147.096313,270.898926 159.925980,270.710846 
	C161.349487,270.690002 163.491592,269.489105 164.044830,268.267029 
	C168.359985,258.735199 172.367645,249.064133 176.808670,238.641922 
	C174.686935,238.516098 173.136826,238.344559 171.586655,238.343918 
	C134.589294,238.328949 97.591751,238.288132 60.595093,238.449692 
	C58.528851,238.458710 55.442600,239.599167 54.573380,241.174393 
	C48.631325,251.942734 39.268368,256.562866 27.604206,255.627655 
	C15.425057,254.651169 7.211238,247.440308 2.579479,236.184219 
	C2.201350,235.265274 1.943907,234.296661 1.315190,233.175568 
	C1.000000,229.307098 1.000000,225.614182 1.000000,221.460632 
M44.995724,341.126099 
	C46.922073,335.011414 45.831203,330.461456 41.613312,327.287292 
	C37.622311,324.283875 33.338673,323.939850 29.072386,326.488464 
	C24.857187,329.006622 22.825510,332.845062 23.559408,337.816345 
	C24.247490,342.477203 26.776108,345.820648 31.423992,347.056610 
	C37.027832,348.546844 41.524162,346.790131 44.995724,341.126099 
M488.466492,342.857147 
	C491.475769,336.980591 491.063080,332.184845 487.211609,328.273804 
	C483.798004,324.807343 478.631348,323.842377 474.403748,325.995087 
	C470.003510,328.235748 467.744202,331.824799 467.979248,336.833618 
	C468.192902,341.387756 470.360504,344.894196 474.512665,346.578735 
	C479.550903,348.622772 484.265656,347.748657 488.466492,342.857147 
M482.088104,238.417572 
	C483.559631,238.329651 485.097260,238.486084 486.490601,238.109085 
	C491.111023,236.858917 495.353546,232.069321 495.719330,227.956635 
	C496.089691,223.792618 492.334015,218.470886 487.447174,216.540741 
	C483.046326,214.802582 479.257050,216.240143 476.114746,219.422897 
	C470.192749,225.421005 472.820648,234.672348 482.088104,238.417572 
M18.577257,229.673172 
	C22.023438,236.501343 27.287556,239.704041 32.578545,238.191620 
	C38.290401,236.558868 41.858871,230.805542 40.696117,225.103897 
	C39.507599,219.275955 34.376156,215.295700 28.885702,215.943085 
	C22.978130,216.639633 18.253395,222.482254 18.577257,229.673172 
M98.606918,291.117981 
	C99.592140,290.009125 100.768356,289.016815 101.528557,287.770691 
	C104.378136,283.099518 103.285614,276.799652 99.157646,273.317139 
	C94.772751,269.617859 90.372681,269.603333 85.627586,273.272400 
	C80.509621,277.229797 79.227928,282.422058 82.203377,287.144226 
	C85.972748,293.126343 91.386261,294.641449 98.606918,291.117981 
M424.382568,292.921936 
	C426.059357,291.891083 427.923859,291.073120 429.378754,289.790558 
	C434.289642,285.461456 434.649536,280.067017 430.539520,275.373749 
	C425.681458,269.826294 419.955353,269.058350 414.851593,273.269775 
	C411.090302,276.373474 409.816528,281.687836 411.712708,286.365814 
	C413.731201,291.345581 417.580719,293.502777 424.382568,292.921936 
M380.396912,186.989410 
	C382.748291,185.865952 385.410339,185.130692 387.391846,183.545059 
	C392.965027,179.085327 393.333618,173.970596 388.854492,169.039368 
	C383.804413,163.479568 377.718475,162.869278 372.787048,167.531113 
	C369.624298,170.520981 368.656342,174.287872 369.749176,178.437439 
	C371.069427,183.450638 374.519257,186.190964 380.396912,186.989410 
M124.578140,181.760132 
	C127.939827,185.139603 131.465973,188.146729 136.754501,186.381622 
	C143.212341,184.226273 146.285202,177.391220 143.664886,171.127686 
	C141.348297,165.590195 134.789520,162.897369 129.704178,165.395844 
	C122.578781,168.896606 120.596748,174.493851 124.578140,181.760132 
z"/>
<path fill="#F8F7FC" opacity="1.000000" stroke="none" 
	d="
M44.836025,341.481720 
	C41.524162,346.790131 37.027832,348.546844 31.423992,347.056610 
	C26.776108,345.820648 24.247490,342.477203 23.559408,337.816345 
	C22.825510,332.845062 24.857187,329.006622 29.072386,326.488464 
	C33.338673,323.939850 37.622311,324.283875 41.613312,327.287292 
	C45.831203,330.461456 46.922073,335.011414 44.836025,341.481720 
z"/>
<path fill="#F9F8FD" opacity="1.000000" stroke="none" 
	d="
M488.239502,343.155792 
	C484.265656,347.748657 479.550903,348.622772 474.512665,346.578735 
	C470.360504,344.894196 468.192902,341.387756 467.979248,336.833618 
	C467.744202,331.824799 470.003510,328.235748 474.403748,325.995087 
	C478.631348,323.842377 483.798004,324.807343 487.211609,328.273804 
	C491.063080,332.184845 491.475769,336.980591 488.239502,343.155792 
z"/>
<path fill="#F6F5FC" opacity="1.000000" stroke="none" 
	d="
M481.726135,238.305389 
	C472.820648,234.672348 470.192749,225.421005 476.114746,219.422897 
	C479.257050,216.240143 483.046326,214.802582 487.447174,216.540741 
	C492.334015,218.470886 496.089691,223.792618 495.719330,227.956635 
	C495.353546,232.069321 491.111023,236.858917 486.490601,238.109085 
	C485.097260,238.486084 483.559631,238.329651 481.726135,238.305389 
z"/>
<path fill="#F6F5FC" opacity="1.000000" stroke="none" 
	d="
M18.480249,229.301819 
	C18.253395,222.482254 22.978130,216.639633 28.885702,215.943085 
	C34.376156,215.295700 39.507599,219.275955 40.696117,225.103897 
	C41.858871,230.805542 38.290401,236.558868 32.578545,238.191620 
	C27.287556,239.704041 22.023438,236.501343 18.480249,229.301819 
z"/>
<path fill="#F7F6FC" opacity="1.000000" stroke="none" 
	d="
M98.321121,291.346558 
	C91.386261,294.641449 85.972748,293.126343 82.203377,287.144226 
	C79.227928,282.422058 80.509621,277.229797 85.627586,273.272400 
	C90.372681,269.603333 94.772751,269.617859 99.157646,273.317139 
	C103.285614,276.799652 104.378136,283.099518 101.528557,287.770691 
	C100.768356,289.016815 99.592140,290.009125 98.321121,291.346558 
z"/>
<path fill="#F7F6FC" opacity="1.000000" stroke="none" 
	d="
M424.016724,292.988831 
	C417.580719,293.502777 413.731201,291.345581 411.712708,286.365814 
	C409.816528,281.687836 411.090302,276.373474 414.851593,273.269775 
	C419.955353,269.058350 425.681458,269.826294 430.539520,275.373749 
	C434.649536,280.067017 434.289642,285.461456 429.378754,289.790558 
	C427.923859,291.073120 426.059357,291.891083 424.016724,292.988831 
z"/>
<path fill="#F8F7FD" opacity="1.000000" stroke="none" 
	d="
M380.003845,186.956543 
	C374.519257,186.190964 371.069427,183.450638 369.749176,178.437439 
	C368.656342,174.287872 369.624298,170.520981 372.787048,167.531113 
	C377.718475,162.869278 383.804413,163.479568 388.854492,169.039368 
	C393.333618,173.970596 392.965027,179.085327 387.391846,183.545059 
	C385.410339,185.130692 382.748291,185.865952 380.003845,186.956543 
z"/>
<path fill="#F9F8FD" opacity="1.000000" stroke="none" 
	d="
M124.348465,181.464478 
	C120.596748,174.493851 122.578781,168.896606 129.704178,165.395844 
	C134.789520,162.897369 141.348297,165.590195 143.664886,171.127686 
	C146.285202,177.391220 143.212341,184.226273 136.754501,186.381622 
	C131.465973,188.146729 127.939827,185.139603 124.348465,181.464478 
z"/>
</svg>